<?xml version="1.0" encoding="utf-8"?>
<!-- Svg Vector Icons : http://www.onlinewebfonts.com/icon -->
<!DOCTYPE svg PUBLIC "-//W3C//DTD SVG 1.1//EN" "http://www.w3.org/Graphics/SVG/1.1/DTD/svg11.dtd">
<svg version="1.1" xmlns="http://www.w3.org/2000/svg" xmlns:xlink="http://www.w3.org/1999/xlink" x="0px" y="0px" viewBox="0 0 1000 1000" enable-background="new 0 0 1000 1000" xml:space="preserve">
<metadata> Svg Vector Icons : http://www.onlinewebfonts.com/icon </metadata>
<g><g transform="translate(0.000000,375.000000) scale(0.100000,-0.100000)"><path d="M3419.4,2292.7c-32.6-30.6-47.9-67-47.9-114.9s15.3-84.3,47.9-114.9l46-47.9h2183.1h2183.1l51.7,46c74.7,63.2,74.7,170.4,0,233.6l-51.7,46H5648.4H3465.4L3419.4,2292.7z"/><path d="M1789.7,1318c-40.2-34.5-53.6-61.3-53.6-116.8c0-55.5,13.4-82.3,53.6-116.8l51.7-46h1200.7c1267.7,1.9,1235.2-1.9,1283,90c36.4,67,26.8,120.6-32.5,180l-55.5,55.5H3038.3H1841.4L1789.7,1318z"/><path d="M4729.3,1308.4c-70.8-72.8-74.7-157-7.7-222.1l46-47.9H6627h1861.4l57.5,57.5c47.9,49.8,55.5,68.9,45.9,120.6c-5.7,34.5-32.5,80.4-61.3,105.3l-47.9,42.1h-1848H4784.8L4729.3,1308.4z"/><path d="M843.7,362.4c-103.4-51.7-120.6-180-38.3-262.4c38.3-38.3,74.7-38.3,2719.3-38.3h2682.9l46,47.9c70.9,68.9,65.1,164.7-11.5,227.9l-59.4,49.8H3538.1C1460.4,387.3,882,381.6,843.7,362.4z"/><path d="M6722.8,362.4c-99.6-49.8-114.9-170.4-34.5-256.6l40.2-44h722h722l38.3,44c21.1,23,45.9,61.3,51.7,84.3c17.2,57.5-36.4,155.1-95.8,178.1C8090.1,398.8,6782.1,393.1,6722.8,362.4z"/><path d="M200.3-608.5C95-650.6,66.2-790.4,144.8-867l46-47.9H1242h1051.3l40.2,44c47.9,49.8,55.5,157,15.3,208.7c-13.4,19.2-47.9,42.1-76.6,53.6C2207.2-585.5,259.7-583.6,200.3-608.5z"/><path d="M2804.7-616.1c-97.7-42.1-118.7-181.9-40.2-256.6l44.1-42.1h3500.6h3498.7l46,47.9c61.3,59.4,61.3,143.6,1.9,214.5l-45.9,53.6l-3473.8,3.8C3452-591.2,2854.5-595.1,2804.7-616.1z"/><path d="M1131-1623.4c-86.2-86.2-63.2-214.5,47.9-260.4c57.5-23,321.7-26.8,1897.8-23l1830.7,5.7l46,53.6c59.4,70.9,59.4,155.1-1.9,214.5l-46,47.9h-1869C1203.7-1585.1,1169.3-1585.1,1131-1623.4z"/><path d="M5372.7-1633c-61.3-59.4-61.3-143.6-1.9-214.5l46-53.6l1830.8-5.7c2003.1-5.7,1941.8-7.7,1983.9,103.4c11.5,28.7,15.3,76.6,9.6,107.2c-26.8,116.8,82.3,111.1-1959,111.1H5418.6L5372.7-1633z"/><path d="M1772.5-2623.1c-59.4-68.9-55.5-151.3,11.5-216.4c36.4-36.4,67-38.3,712.4-44c369.6-3.8,702.8,0,737.3,5.7c44.1,7.7,74.7,30.6,101.5,72.8c42.1,70.9,34.5,136-24.9,201.1l-40.2,42.1h-723.9h-721.9L1772.5-2623.1z"/><path d="M3745-2609.6c-70.9-68.9-65.1-164.7,11.5-227.9l59.4-49.8h1826.9c2003.1,0,1924.6-3.8,1955.2,111.1c19.2,72.8,7.6,120.6-38.3,172.4l-38.3,42.1H5656.1H3790.9L3745-2609.6z"/><path d="M1123.3-3597.8c-65.1-76.6-63.2-141.7,5.7-210.7l55.5-55.5h1526.3h1526.3l55.5,55.5c59.4,59.4,68.9,113,32.5,180c-47.9,91.9,5.8,88.1-1618.2,90H1173.1L1123.3-3597.8z"/><path d="M4721.6-3586.3c-67-65.1-63.2-149.4,7.7-222.1l55.5-55.5h1687.1h1685.2l51.7,46c74.7,63.2,74.7,170.4,0,233.6l-51.7,46H6462.3H4767.6L4721.6-3586.3z"/><path d="M2770.2-4555.3c-68.9-53.6-70.9-170.4-1.9-237.5l46-47.9h2185h2185l46,47.9c32.6,30.6,47.9,67,47.9,114.9c0,47.9-15.3,84.3-47.9,114.9l-46,47.9H5003.1C2825.8-4515.1,2821.9-4515.1,2770.2-4555.3z"/></g></g>
</svg>