<?xml version="1.0" encoding="utf-8"?>
<!-- Svg Vector Icons : http://www.onlinewebfonts.com/icon -->
<!DOCTYPE svg PUBLIC "-//W3C//DTD SVG 1.1//EN" "http://www.w3.org/Graphics/SVG/1.1/DTD/svg11.dtd">
<svg version="1.1" xmlns="http://www.w3.org/2000/svg" xmlns:xlink="http://www.w3.org/1999/xlink" x="0px" y="0px" viewBox="0 0 1000 1000" enable-background="new 0 0 1000 1000" xml:space="preserve">
<metadata> Svg Vector Icons : http://www.onlinewebfonts.com/icon </metadata>
<g><path d="M128,41.1c0,16.7,13.6,30.3,30.3,30.3s30.3-13.6,30.3-30.3S175,10.8,158.2,10.8S128,24.4,128,41.1z"/><path d="M158.3,72.2c-1.1,0-2.1-0.1-3.2-0.2c-8.3-0.8-15.7-4.8-20.9-11.3c-5.2-6.4-7.7-14.5-6.8-22.8C128.9,22,142.2,10,158.2,10c1.1,0,2.1,0.1,3.2,0.2c8.3,0.8,15.7,4.8,20.9,11.3c5.2,6.4,7.7,14.5,6.8,22.8C187.5,60.2,174.3,72.2,158.3,72.2z M158.2,11.6c-15.2,0-27.8,11.4-29.3,26.5c-0.8,7.8,1.5,15.5,6.5,21.6c5,6.1,12,9.9,19.9,10.7c1,0.1,2,0.2,3,0.2c15.2,0,27.8-11.4,29.3-26.5c0.8-7.8-1.5-15.5-6.5-21.6s-12-9.9-19.9-10.7C160.2,11.7,159.2,11.6,158.2,11.6z"/><path d="M680.7,41.1c0,16.7,13.6,30.3,30.3,30.3c16.7,0,30.3-13.6,30.3-30.3S727.7,10.8,711,10.8C694.3,10.8,680.7,24.4,680.7,41.1z"/><path d="M711,72.2c-1.1,0-2.1-0.1-3.2-0.2c-8.3-0.8-15.7-4.8-20.9-11.3c-5.2-6.4-7.7-14.5-6.8-22.8C681.7,22,694.9,10,710.9,10c1.1,0,2.1,0.1,3.2,0.2c8.3,0.8,15.7,4.8,20.9,11.3c5.2,6.4,7.7,14.5,6.8,22.8C740.3,60.2,727,72.2,711,72.2z M710.9,11.6c-15.2,0-27.8,11.4-29.3,26.5c-0.8,7.8,1.5,15.5,6.5,21.6c5,6.1,12,9.9,19.9,10.7c1,0.1,2,0.2,3,0.2c15.2,0,27.8-11.4,29.3-26.5c0.8-7.8-1.5-15.5-6.5-21.6s-12-9.9-19.9-10.7C713,11.7,711.9,11.6,710.9,11.6z"/><path d="M877.9,207.4c0,16.7,13.6,30.3,30.3,30.3c16.7,0,30.3-13.6,30.3-30.3c0-16.7-13.6-30.3-30.3-30.3C891.5,177.1,877.9,190.7,877.9,207.4z"/><path d="M908.3,238.5c-1.1,0-2.1-0.1-3.2-0.2c-17.1-1.7-29.5-17-27.8-34.1c1.6-15.9,14.9-27.9,30.9-27.9c1.1,0,2.1,0.1,3.2,0.2c8.3,0.8,15.7,4.8,20.9,11.3c5.2,6.4,7.7,14.5,6.8,22.8C937.5,226.5,924.3,238.5,908.3,238.5z M908.2,177.9c-15.2,0-27.8,11.4-29.3,26.5c-1.6,16.2,10.2,30.7,26.4,32.3c1,0.1,2,0.2,3,0.2c15.2,0,27.8-11.4,29.3-26.5c0.8-7.8-1.5-15.5-6.5-21.6s-12-9.9-19.9-10.7C910.2,178,909.2,177.9,908.2,177.9z"/><path d="M61.5,159.2c0,16.7,13.6,30.3,30.3,30.3c16.7,0,30.3-13.6,30.3-30.3s-13.6-30.3-30.3-30.3C75,128.9,61.5,142.4,61.5,159.2z"/><path d="M91.8,190.2c-1.1,0-2.1-0.1-3.2-0.2c-8.3-0.8-15.7-4.8-20.9-11.3c-5.2-6.4-7.7-14.5-6.8-22.8c1.6-15.9,14.9-27.9,30.9-27.9c1.1,0,2.1,0.1,3.2,0.2c8.3,0.8,15.7,4.8,20.9,11.3c5.2,6.4,7.7,14.5,6.8,22.8C121.1,178.2,107.8,190.2,91.8,190.2z M91.7,129.7c-15.2,0-27.8,11.4-29.3,26.5c-0.8,7.8,1.5,15.5,6.5,21.6c5,6.1,12,9.9,19.9,10.7c1,0.1,2,0.2,3,0.2c15.2,0,27.8-11.4,29.3-26.5c0.8-7.8-1.5-15.5-6.5-21.6s-12-9.9-19.9-10.7C93.7,129.7,92.7,129.7,91.7,129.7z"/><path d="M488.7,98.6c0,16.7,13.6,30.3,30.3,30.3c16.7,0,30.3-13.6,30.3-30.3c0-16.7-13.6-30.3-30.3-30.3C502.3,68.3,488.7,81.9,488.7,98.6L488.7,98.6z"/><path d="M519,129.7c-1.1,0-2.1-0.1-3.2-0.2c-8.3-0.8-15.7-4.8-20.9-11.3c-5.2-6.4-7.7-14.5-6.8-22.8c1.6-15.9,14.9-27.9,30.9-27.9c1.1,0,2.1,0.1,3.2,0.2c8.3,0.8,15.7,4.8,20.9,11.3c5.3,6.4,7.7,14.5,6.8,22.8C548.3,117.7,535,129.7,519,129.7z M518.9,69.1c-15.2,0-27.8,11.4-29.3,26.5c-0.8,7.8,1.5,15.5,6.5,21.6c5,6.1,12,9.9,19.9,10.7c1,0.1,2,0.2,3,0.2c15.2,0,27.8-11.4,29.3-26.5c0.8-7.8-1.5-15.5-6.5-21.6c-5-6.1-12-9.9-19.9-10.7C521,69.2,519.9,69.1,518.9,69.1z"/><path d="M338.5,313.2c0,16.7,13.6,30.3,30.3,30.3c16.7,0,30.3-13.6,30.3-30.3c0-16.7-13.6-30.3-30.3-30.3C352.1,282.9,338.5,296.4,338.5,313.2z"/><path d="M368.8,344.2c-17.1,0-31.1-13.9-31.1-31.1c0-17.1,13.9-31.1,31.1-31.1c17.1,0,31.1,13.9,31.1,31.1C399.9,330.3,385.9,344.2,368.8,344.2z M368.8,283.7c-16.3,0-29.5,13.2-29.5,29.5c0,16.3,13.2,29.5,29.5,29.5s29.5-13.2,29.5-29.5C398.3,296.9,385.1,283.7,368.8,283.7z"/><path d="M462.9,494.7c-12.9,0-23.3-10.4-23.3-23.3S450,448,462.9,448c57.1,0,110.5-7.8,150.3-21.8c41-14.5,49.9-29.4,49.9-33.9c0-4.5-9-19.4-49.9-33.9c-39.8-14.1-93.1-21.8-150.3-21.8c-12.9,0-23.3-10.4-23.3-23.3c0-12.9,10.4-23.3,23.3-23.3c62.3,0,121.2,8.7,165.8,24.5c67,23.7,81,55.5,81,77.9c0,22.5-14.1,54.2-81,77.9C584,486,525.2,494.7,462.9,494.7z"/><path d="M453.1,494.7c-99.4,0-193.3-15.9-264.2-44.6c-77.6-31.5-120.4-76-120.4-125.2c0-49.3,42.8-93.8,120.4-125.2c71-28.8,164.8-44.6,264.2-44.6s193.3,15.9,264.2,44.6c77.6,31.5,120.4,76,120.4,125.2c0,49.3-42.8,93.8-120.4,125.2C646.3,478.8,552.5,494.7,453.1,494.7z M453.1,201.6c-93.6,0-181.2,14.6-246.7,41.2c-57.1,23.2-91.3,53.8-91.3,82c0,28.2,34.1,58.8,91.3,82c65.5,26.6,153.1,41.2,246.7,41.2c93.6,0,181.2-14.6,246.7-41.2c57.1-23.2,91.3-53.8,91.3-82c0-28.2-34.1-58.8-91.3-82C634.2,216.2,546.6,201.6,453.1,201.6z"/><path d="M453.1,990c-44.6,0-86.9-9.1-119.1-25.8c-37.1-19.1-57.5-46.4-57.5-76.6c0-12.9,10.4-23.3,23.3-23.3c12.9,0,23.3,10.4,23.3,23.3c0,11.6,12.1,24.8,32.3,35.2c25.3,13.1,60.9,20.6,97.7,20.6c36.8,0,72.4-7.5,97.7-20.6c20.2-10.4,32.3-23.6,32.3-35.2c0-12.9,10.4-23.3,23.3-23.3c12.9,0,23.3,10.4,23.3,23.3c0,30.3-20.4,57.5-57.5,76.6C539.9,980.9,497.7,990,453.1,990z"/><path d="M453.1,833.1c-62.6,0-121.9-10-166.8-28.3c-51.6-20.9-80-51.4-80-85.7c0-12.9,10.4-23.3,23.3-23.3c12.9,0,23.3,10.4,23.3,23.3c0,13.3,20,30,50.9,42.5c39.5,16,92.5,24.8,149.3,24.8c56.8,0,109.8-8.8,149.3-24.8c30.9-12.5,50.9-29.2,50.9-42.5c0-12.9,10.4-23.3,23.3-23.3c12.9,0,23.3,10.4,23.3,23.3c0,34.3-28.4,64.8-80,85.7C574.9,823.1,515.7,833.1,453.1,833.1z"/><path d="M453.1,676c-72.4,0-140.9-11.6-192.8-32.6c-58.5-23.7-90.8-57.9-90.8-96.3c0-12.9,10.4-23.3,23.3-23.3c12.9,0,23.3,10.4,23.3,23.3c0,17.3,23.6,37.6,61.7,53c46.4,18.8,108.7,29.2,175.2,29.2c66.6,0,128.8-10.4,175.2-29.2c38-15.4,61.7-35.7,61.7-53c0-12.9,10.4-23.3,23.3-23.3s23.3,10.4,23.3,23.3c0,38.3-32.2,72.5-90.8,96.3C594,664.5,525.5,676,453.1,676z"/></g>
</svg>